<?xml version="1.0" encoding="UTF-8" standalone="no"?>
<svg
   xmlns:dc="http://purl.org/dc/elements/1.1/"
   xmlns:cc="http://creativecommons.org/ns#"
   xmlns:rdf="http://www.w3.org/1999/02/22-rdf-syntax-ns#"
   xmlns:svg="http://www.w3.org/2000/svg"
   xmlns="http://www.w3.org/2000/svg"
   xmlns:sodipodi="http://sodipodi.sourceforge.net/DTD/sodipodi-0.dtd"
   xmlns:inkscape="http://www.inkscape.org/namespaces/inkscape"
   width="16"
   height="16"
   version="1.1"
   viewBox="0 0 16 16"
   id="svg6"
   sodipodi:docname="icon_import_fail.svg"
   inkscape:version="0.92.4 5da689c313, 2019-01-14">
  <metadata
     id="metadata12">
    <rdf:RDF>
      <cc:Work
         rdf:about="">
        <dc:format>image/svg+xml</dc:format>
        <dc:type
           rdf:resource="http://purl.org/dc/dcmitype/StillImage" />
      </cc:Work>
    </rdf:RDF>
  </metadata>
  <defs
     id="defs10" />
  <sodipodi:namedview
     pagecolor="#ffffff"
     bordercolor="#666666"
     borderopacity="1"
     objecttolerance="10"
     gridtolerance="10"
     guidetolerance="10"
     inkscape:pageopacity="0"
     inkscape:pageshadow="2"
     inkscape:window-width="687"
     inkscape:window-height="513"
     id="namedview8"
     showgrid="false"
     inkscape:zoom="14.75"
     inkscape:cx="7.4105004"
     inkscape:cy="8"
     inkscape:window-x="42"
     inkscape:window-y="0"
     inkscape:window-maximized="0"
     inkscape:current-layer="svg6" />
  <g
     transform="translate(0 -1036.4)"
     id="g4"
     style="fill:#e0e0e0;fill-opacity:1">
    <path
       transform="translate(0 1036.4)"
       d="m2.9902 1.9902a1.0001 1.0001 0 0 0 -0.69727 1.7168l4.293 4.293-4.293 4.293a1.0001 1.0001 0 1 0 1.4141 1.4141l4.293-4.293 4.293 4.293a1.0001 1.0001 0 1 0 1.4141 -1.4141l-4.293-4.293 4.293-4.293a1.0001 1.0001 0 0 0 -0.72656 -1.7148 1.0001 1.0001 0 0 0 -0.6875 0.30078l-4.293 4.293-4.293-4.293a1.0001 1.0001 0 0 0 -0.7168 -0.30273z"
       color="#000000"
       color-rendering="auto"
       fill="#ff5d5d"
       fill-rule="evenodd"
       image-rendering="auto"
       shape-rendering="auto"
       solid-color="#000000"
       style="block-progression:tb;isolation:auto;mix-blend-mode:normal;text-decoration-color:#000000;text-decoration-line:none;text-decoration-style:solid;text-indent:0;text-transform:none;white-space:normal;fill:#e0e0e0;fill-opacity:1"
       id="path2" />
  </g>
</svg>
